<svg width="145" height="145" viewBox="0 0 145 145" fill="none" xmlns="http://www.w3.org/2000/svg">
<rect x="0.949463" y="0.949707" width="144" height="144" rx="72" fill="#E42312"/>
<path d="M106.309 66.6587V79.2947H103.231V74.0927H98.443V79.2947H95.365V66.6587H98.443V71.6087H103.231V66.6587H106.309Z" fill="black"/>
<path d="M81.4919 72.9586C81.4919 71.7106 81.7619 70.6006 82.3019 69.6286C82.8419 68.6446 83.5919 67.8826 84.5519 67.3426C85.5239 66.7906 86.6219 66.5146 87.8459 66.5146C89.3459 66.5146 90.6299 66.9106 91.6979 67.7026C92.7659 68.4946 93.4799 69.5746 93.8399 70.9426H90.4559C90.2039 70.4146 89.8439 70.0126 89.3759 69.7366C88.9199 69.4606 88.3979 69.3226 87.8099 69.3226C86.8619 69.3226 86.0939 69.6526 85.5059 70.3126C84.9179 70.9726 84.6239 71.8546 84.6239 72.9586C84.6239 74.0626 84.9179 74.9446 85.5059 75.6046C86.0939 76.2646 86.8619 76.5946 87.8099 76.5946C88.3979 76.5946 88.9199 76.4566 89.3759 76.1806C89.8439 75.9046 90.2039 75.5026 90.4559 74.9746H93.8399C93.4799 76.3426 92.7659 77.4226 91.6979 78.2146C90.6299 78.9946 89.3459 79.3846 87.8459 79.3846C86.6219 79.3846 85.5239 79.1146 84.5519 78.5746C83.5919 78.0226 82.8419 77.2606 82.3019 76.2886C81.7619 75.3166 81.4919 74.2066 81.4919 72.9586Z" fill="black"/>
<path d="M80.8292 66.6587V69.1247H77.4812V79.2947H74.4032V69.1247H71.0552V66.6587H80.8292Z" fill="black"/>
<path d="M66.6938 77.0627H61.9778L61.2218 79.2947H57.9998L62.5718 66.6587H66.1358L70.7078 79.2947H67.4498L66.6938 77.0627ZM65.9018 74.6867L64.3358 70.0607L62.7878 74.6867H65.9018Z" fill="black"/>
<path d="M57.6441 66.6587L54.3501 79.2947H50.6241L48.6081 70.9787L46.5201 79.2947H42.7941L39.5901 66.6587H42.8841L44.7021 75.8567L46.9521 66.6587H50.3361L52.4961 75.8567L54.3321 66.6587H57.6441Z" fill="black"/>
</svg>
